<svg width="1280" height="720" xmlns="http://www.w3.org/2000/svg" xmlns:xlink="http://www.w3.org/1999/xlink" overflow="hidden"><defs><filter id="fx0" x="-10%" y="-10%" width="120%" height="120%" filterUnits="userSpaceOnUse" primitiveUnits="userSpaceOnUse"><feComponentTransfer color-interpolation-filters="sRGB"><feFuncR type="discrete" tableValues="1 1"/><feFuncG type="discrete" tableValues="1 1"/><feFuncB type="discrete" tableValues="1 1"/><feFuncA type="linear" slope="0.4" intercept="0"/></feComponentTransfer><feGaussianBlur stdDeviation="4.44444 4.44444"/></filter><filter id="fx1" x="-10%" y="-10%" width="120%" height="120%" filterUnits="userSpaceOnUse" primitiveUnits="userSpaceOnUse"><feComponentTransfer color-interpolation-filters="sRGB"><feFuncR type="discrete" tableValues="0 0"/><feFuncG type="discrete" tableValues="0 0"/><feFuncB type="discrete" tableValues="0 0"/><feFuncA type="linear" slope="0.4" intercept="0"/></feComponentTransfer><feGaussianBlur stdDeviation="6.66667 6.66667"/></filter><filter id="fx2" x="-10%" y="-10%" width="120%" height="120%" filterUnits="userSpaceOnUse" primitiveUnits="userSpaceOnUse"><feComponentTransfer color-interpolation-filters="sRGB"><feFuncR type="discrete" tableValues="1 1"/><feFuncG type="discrete" tableValues="1 1"/><feFuncB type="discrete" tableValues="1 1"/><feFuncA type="linear" slope="0.4" intercept="0"/></feComponentTransfer><feGaussianBlur stdDeviation="4.44444 4.44444"/></filter><filter id="fx3" x="-10%" y="-10%" width="120%" height="120%" filterUnits="userSpaceOnUse" primitiveUnits="userSpaceOnUse"><feComponentTransfer color-interpolation-filters="sRGB"><feFuncR type="discrete" tableValues="0 0"/><feFuncG type="discrete" tableValues="0 0"/><feFuncB type="discrete" tableValues="0 0"/><feFuncA type="linear" slope="0.4" intercept="0"/></feComponentTransfer><feGaussianBlur stdDeviation="6.66667 6.66667"/></filter><filter id="fx4" x="-10%" y="-10%" width="120%" height="120%" filterUnits="userSpaceOnUse" primitiveUnits="userSpaceOnUse"><feComponentTransfer color-interpolation-filters="sRGB"><feFuncR type="discrete" tableValues="1 1"/><feFuncG type="discrete" tableValues="1 1"/><feFuncB type="discrete" tableValues="1 1"/><feFuncA type="linear" slope="0.4" intercept="0"/></feComponentTransfer><feGaussianBlur stdDeviation="4.44444 4.44444"/></filter><filter id="fx5" x="-10%" y="-10%" width="120%" height="120%" filterUnits="userSpaceOnUse" primitiveUnits="userSpaceOnUse"><feComponentTransfer color-interpolation-filters="sRGB"><feFuncR type="discrete" tableValues="0 0"/><feFuncG type="discrete" tableValues="0 0"/><feFuncB type="discrete" tableValues="0 0"/><feFuncA type="linear" slope="0.4" intercept="0"/></feComponentTransfer><feGaussianBlur stdDeviation="6.66667 6.66667"/></filter><filter id="fx6" x="-10%" y="-10%" width="120%" height="120%" filterUnits="userSpaceOnUse" primitiveUnits="userSpaceOnUse"><feComponentTransfer color-interpolation-filters="sRGB"><feFuncR type="discrete" tableValues="1 1"/><feFuncG type="discrete" tableValues="1 1"/><feFuncB type="discrete" tableValues="1 1"/><feFuncA type="linear" slope="0.4" intercept="0"/></feComponentTransfer><feGaussianBlur stdDeviation="4.44444 4.44444"/></filter><filter id="fx7" x="-10%" y="-10%" width="120%" height="120%" filterUnits="userSpaceOnUse" primitiveUnits="userSpaceOnUse"><feComponentTransfer color-interpolation-filters="sRGB"><feFuncR type="discrete" tableValues="0 0"/><feFuncG type="discrete" tableValues="0 0"/><feFuncB type="discrete" tableValues="0 0"/><feFuncA type="linear" slope="0.4" intercept="0"/></feComponentTransfer><feGaussianBlur stdDeviation="6.66667 6.66667"/></filter><filter id="fx8" x="-10%" y="-10%" width="120%" height="120%" filterUnits="userSpaceOnUse" primitiveUnits="userSpaceOnUse"><feComponentTransfer color-interpolation-filters="sRGB"><feFuncR type="discrete" tableValues="1 1"/><feFuncG type="discrete" tableValues="1 1"/><feFuncB type="discrete" tableValues="1 1"/><feFuncA type="linear" slope="0.4" intercept="0"/></feComponentTransfer><feGaussianBlur stdDeviation="4.44444 4.44444"/></filter><filter id="fx9" x="-10%" y="-10%" width="120%" height="120%" filterUnits="userSpaceOnUse" primitiveUnits="userSpaceOnUse"><feComponentTransfer color-interpolation-filters="sRGB"><feFuncR type="discrete" tableValues="0 0"/><feFuncG type="discrete" tableValues="0 0"/><feFuncB type="discrete" tableValues="0 0"/><feFuncA type="linear" slope="0.4" intercept="0"/></feComponentTransfer><feGaussianBlur stdDeviation="6.66667 6.66667"/></filter><clipPath id="clip10"><rect x="0" y="0" width="1280" height="720"/></clipPath><linearGradient x1="849.25" y1="105.75" x2="1359.75" y2="616.25" gradientUnits="userSpaceOnUse" spreadMethod="reflect" id="fill11"><stop offset="0" stop-color="#7800AC"/><stop offset="0.9" stop-color="#FDA9A9"/><stop offset="1" stop-color="#EDEEF3"/></linearGradient><linearGradient x1="42.5" y1="84.5" x2="231.5" y2="273.5" gradientUnits="userSpaceOnUse" spreadMethod="reflect" id="fill12"><stop offset="0" stop-color="#EDEEF3"/><stop offset="0.9" stop-color="#FFFFFF"/><stop offset="1" stop-color="#EDEEF3"/></linearGradient><linearGradient x1="339.5" y1="84.5" x2="528.5" y2="273.5" gradientUnits="userSpaceOnUse" spreadMethod="reflect" id="fill13"><stop offset="0" stop-color="#EDEEF3"/><stop offset="0.9" stop-color="#FFFFFF"/><stop offset="1" stop-color="#EDEEF3"/></linearGradient><linearGradient x1="636.25" y1="84.75" x2="824.75" y2="273.25" gradientUnits="userSpaceOnUse" spreadMethod="reflect" id="fill14"><stop offset="0" stop-color="#EDEEF3"/><stop offset="0.9" stop-color="#FFFFFF"/><stop offset="1" stop-color="#EDEEF3"/></linearGradient><linearGradient x1="983.75" y1="15.25" x2="1244.25" y2="275.75" gradientUnits="userSpaceOnUse" spreadMethod="reflect" id="fill15"><stop offset="0" stop-color="#EDEEF3"/><stop offset="0.9" stop-color="#FFFFFF"/><stop offset="1" stop-color="#EDEEF3"/></linearGradient><linearGradient x1="144.5" y1="197.5" x2="746.5" y2="799.5" gradientUnits="userSpaceOnUse" spreadMethod="reflect" id="fill16"><stop offset="0" stop-color="#EDEEF3"/><stop offset="0.9" stop-color="#FFFFFF"/><stop offset="1" stop-color="#EDEEF3"/></linearGradient></defs><g clip-path="url(#clip10)"><rect x="0" y="0" width="1280" height="720" fill="#FFFFFF"/><path d="M0 75.1456C0 55.183 16.1829 39 36.1456 39L1097.85 39C1117.82 39 1134 55.183 1134 75.1456L1134 664.854C1134 684.817 1117.82 701 1097.85 701L36.1456 701C16.1829 701 0 684.817 0 664.854Z" fill="#F3F4F7" fill-rule="evenodd"/><path d="M953 52.5011C953 24.6101 975.61 2 1003.5 2L1205.5 2C1233.39 2 1256 24.6101 1256 52.5011L1256 669.499C1256 697.39 1233.39 720 1205.5 720L1003.5 720C975.61 720 953 697.39 953 669.499Z" fill="url(#fill11)" fill-rule="evenodd"/><g filter="url(#fx0)" transform="translate(-10 89)"><g><path d="M14.5719 36.5723C14.5719 24.4218 24.4218 14.5719 36.5723 14.5719L238.572 14.5719C250.722 14.5719 260.572 24.4218 260.572 36.5723L260.572 124.571C260.572 136.722 250.722 146.572 238.572 146.572L36.5723 146.572C24.4218 146.572 14.5719 136.722 14.5719 124.571Z" fill="#D9D9D9" fill-rule="evenodd"/></g></g><path d="M14 135C14 122.85 23.8499 113 36.0004 113L238 113C250.15 113 260 122.85 260 135L260 223C260 235.15 250.15 245 238 245L36.0004 245C23.8499 245 14 235.15 14 223Z" fill="#D9D9D9" fill-rule="evenodd"/><g filter="url(#fx1)" transform="translate(7 106)"><g><path d="M21.1421 43.1425C21.1421 30.9921 30.992 21.1421 43.1425 21.1421L245.142 21.1421C257.292 21.1421 267.142 30.9921 267.142 43.1425L267.142 131.142C267.142 143.292 257.292 153.142 245.142 153.142L43.1425 153.142C30.992 153.142 21.1421 143.292 21.1421 131.142Z" fill="#FF0000" fill-rule="evenodd"/></g></g><path d="M14 135C14 122.85 23.8499 113 36.0004 113L238 113C250.15 113 260 122.85 260 135L260 223C260 235.15 250.15 245 238 245L36.0004 245C23.8499 245 14 235.15 14 223Z" fill="url(#fill12)" fill-rule="evenodd"/><g filter="url(#fx2)" transform="translate(287 89)"><g><path d="M14.5719 36.5723C14.5719 24.4218 24.4218 14.5719 36.5723 14.5719L238.572 14.5719C250.722 14.5719 260.572 24.4218 260.572 36.5723L260.572 124.571C260.572 136.722 250.722 146.572 238.572 146.572L36.5723 146.572C24.4218 146.572 14.5719 136.722 14.5719 124.571Z" fill="#D9D9D9" fill-rule="evenodd"/></g></g><path d="M311 135C311 122.85 320.85 113 333 113L535 113C547.15 113 557 122.85 557 135L557 223C557 235.15 547.15 245 535 245L333 245C320.85 245 311 235.15 311 223Z" fill="#D9D9D9" fill-rule="evenodd"/><g filter="url(#fx3)" transform="translate(304 106)"><g><path d="M21.1422 43.1425C21.1422 30.9921 30.9921 21.1421 43.1425 21.1421L245.142 21.1421C257.292 21.1421 267.142 30.9921 267.142 43.1425L267.142 131.142C267.142 143.292 257.292 153.142 245.142 153.142L43.1425 153.142C30.9921 153.142 21.1422 143.292 21.1422 131.142Z" fill="#FF0000" fill-rule="evenodd"/></g></g><path d="M311 135C311 122.85 320.85 113 333 113L535 113C547.15 113 557 122.85 557 135L557 223C557 235.15 547.15 245 535 245L333 245C320.85 245 311 235.15 311 223Z" fill="url(#fill13)" fill-rule="evenodd"/><g filter="url(#fx4)" transform="translate(584 89)"><g><path d="M14.5719 36.5724C14.5719 24.4218 24.4218 14.5719 36.5723 14.5719L237.571 14.5719C249.722 14.5719 259.572 24.4218 259.572 36.5724L259.572 124.571C259.572 136.722 249.722 146.572 237.571 146.572L36.5723 146.572C24.4218 146.572 14.5719 136.722 14.5719 124.571Z" fill="#D9D9D9" fill-rule="evenodd"/></g></g><path d="M608 135C608 122.85 617.85 113 630 113L831 113C843.15 113 853 122.85 853 135L853 223C853 235.15 843.15 245 831 245L630 245C617.85 245 608 235.15 608 223Z" fill="#D9D9D9" fill-rule="evenodd"/><g filter="url(#fx5)" transform="translate(601 106)"><g><path d="M21.1422 43.1426C21.1422 30.9921 30.9921 21.1421 43.1426 21.1421L244.142 21.1421C256.292 21.1421 266.142 30.9921 266.142 43.1426L266.142 131.142C266.142 143.292 256.292 153.142 244.142 153.142L43.1426 153.142C30.9921 153.142 21.1422 143.292 21.1422 131.142Z" fill="#FF0000" fill-rule="evenodd"/></g></g><path d="M608 135C608 122.85 617.85 113 630 113L831 113C843.15 113 853 122.85 853 135L853 223C853 235.15 843.15 245 831 245L630 245C617.85 245 608 235.15 608 223Z" fill="url(#fill14)" fill-rule="evenodd"/><g filter="url(#fx6)" transform="translate(929 22)"><g><path d="M14.5719 47.7393C14.5719 29.4214 29.4214 14.5719 47.7392 14.5719L303.405 14.5719C321.722 14.5719 336.572 29.4214 336.572 47.7393L336.572 180.405C336.572 198.722 321.722 213.572 303.405 213.572L47.7392 213.572C29.4214 213.572 14.5719 198.722 14.5719 180.405Z" fill="#D9D9D9" fill-rule="evenodd"/></g></g><path d="M953 79.1674C953 60.8495 967.85 46 986.167 46L1241.83 46C1260.15 46 1275 60.8495 1275 79.1674L1275 211.833C1275 230.15 1260.15 245 1241.83 245L986.167 245C967.85 245 953 230.15 953 211.833Z" fill="#D9D9D9" fill-rule="evenodd"/><g filter="url(#fx7)" transform="translate(946 39)"><g><path d="M21.1422 54.3095C21.1422 35.9917 35.9917 21.1421 54.3095 21.1421L309.975 21.1421C328.293 21.1421 343.142 35.9917 343.142 54.3095L343.142 186.975C343.142 205.293 328.293 220.142 309.975 220.142L54.3095 220.142C35.9917 220.142 21.1422 205.293 21.1422 186.975Z" fill="#FF0000" fill-rule="evenodd"/></g></g><path d="M953 79.1674C953 60.8495 967.85 46 986.167 46L1241.83 46C1260.15 46 1275 60.8495 1275 79.1674L1275 211.833C1275 230.15 1260.15 245 1241.83 245L986.167 245C967.85 245 953 230.15 953 211.833Z" fill="url(#fill15)" fill-rule="evenodd"/><g filter="url(#fx8)" transform="matrix(1 0 0 1 0 294)"><g><path d="M14.5719 74.7399C14.5719 41.5101 41.51 14.5719 74.7398 14.5719L797.404 14.5719C830.634 14.5719 857.572 41.5101 857.572 74.7399L857.572 315.404C857.572 348.634 830.634 375.572 797.404 375.572L74.7398 375.572C41.51 375.572 14.5719 348.634 14.5719 315.404Z" fill="#D9D9D9" fill-rule="evenodd"/></g></g><path d="M24 378.168C24 344.938 50.9381 318 84.1679 318L806.832 318C840.062 318 867 344.938 867 378.168L867 618.832C867 652.062 840.062 679 806.832 679L84.1679 679C50.9381 679 24 652.062 24 618.832Z" fill="#D9D9D9" fill-rule="evenodd"/><g filter="url(#fx9)" transform="translate(17 311)"><g><path d="M21.1421 81.3102C21.1421 48.0803 48.0802 21.1422 81.3101 21.1422L803.974 21.1422C837.204 21.1422 864.142 48.0803 864.142 81.3102L864.142 321.974C864.142 355.204 837.204 382.142 803.974 382.142L81.3101 382.142C48.0802 382.142 21.1421 355.204 21.1421 321.974Z" fill="#FF0000" fill-rule="evenodd"/></g></g><path d="M24 378.168C24 344.938 50.9381 318 84.1679 318L806.832 318C840.062 318 867 344.938 867 378.168L867 618.832C867 652.062 840.062 679 806.832 679L84.1679 679C50.9381 679 24 652.062 24 618.832Z" fill="url(#fill16)" fill-rule="evenodd"/></g></svg>